HIERARCHY
ROOT Hips
{
	OFFSET 0.00000 0.00000 0.00000
	CHANNELS 6 Xposition Yposition Zposition Zrotation Yrotation Xrotation 
	JOINT LHipJoint
	{
		OFFSET 0 0 0
		CHANNELS 3 Zrotation Yrotation Xrotation
		JOINT LeftUpLeg
		{
			OFFSET 1.26600 -1.82114 0.91038
			CHANNELS 3 Zrotation Yrotation Xrotation
			JOINT LeftLeg
			{
				OFFSET 2.50076 -6.87080 0.00000
				CHANNELS 3 Zrotation Yrotation Xrotation
				JOINT LeftFoot
				{
					OFFSET 2.57364 -7.07102 0.00000
					CHANNELS 3 Zrotation Yrotation Xrotation
					JOINT LeftToeBase
					{
						OFFSET 0.13572 -0.37290 1.97004
						CHANNELS 3 Zrotation Yrotation Xrotation
						End Site
						{
							OFFSET 0.00000 -0.00000 1.01383
						}
					}
				}
			}
		}
	}
	JOINT RHipJoint
	{
		OFFSET 0 0 0
		CHANNELS 3 Zrotation Yrotation Xrotation
		JOINT RightUpLeg
		{
			OFFSET -1.20803 -1.82114 0.91038
			CHANNELS 3 Zrotation Yrotation Xrotation
			JOINT RightLeg
			{
				OFFSET -2.54916 -7.00377 0.00000
				CHANNELS 3 Zrotation Yrotation Xrotation
				JOINT RightFoot
				{
					OFFSET -2.56374 -7.04382 0.00000
					CHANNELS 3 Zrotation Yrotation Xrotation
					JOINT RightToeBase
					{
						OFFSET -0.23520 -0.64621 2.09921
						CHANNELS 3 Zrotation Yrotation Xrotation
						End Site
						{
							OFFSET -0.00000 -0.00000 1.10065
						}
					}
				}
			}
		}
	}
	JOINT LowerBack
	{
		OFFSET 0 0 0
		CHANNELS 3 Zrotation Yrotation Xrotation
		JOINT Spine
		{
			OFFSET 0.05492 2.10797 -0.12074
			CHANNELS 3 Zrotation Yrotation Xrotation
			JOINT Spine1
			{
				OFFSET 0.04577 2.11592 -0.04483
				CHANNELS 3 Zrotation Yrotation Xrotation
				JOINT Neck
				{
					OFFSET 0 0 0
					CHANNELS 3 Zrotation Yrotation Xrotation
					JOINT Neck1
					{
						OFFSET -0.10759 1.80167 0.15770
						CHANNELS 3 Zrotation Yrotation Xrotation
						JOINT Head
						{
							OFFSET 0.09237 1.77509 -0.40848
							CHANNELS 3 Zrotation Yrotation Xrotation
							End Site
							{
								OFFSET 0.03805 1.84093 -0.15754
							}
						}
					}
				}
				JOINT LeftShoulder
				{
					OFFSET 0 0 0
					CHANNELS 3 Zrotation Yrotation Xrotation
					JOINT LeftArm
					{
						OFFSET 3.42372 1.09575 -0.28209
						CHANNELS 3 Zrotation Yrotation Xrotation
						JOINT LeftForeArm
						{
							OFFSET 4.95681 -0.00000 0.00000
							CHANNELS 3 Zrotation Yrotation Xrotation
							JOINT LeftHand
							{
								OFFSET 3.40915 -0.00000 0.00000
								CHANNELS 3 Zrotation Yrotation Xrotation
								JOINT LeftFingerBase
								{
									OFFSET 0 0 0
									CHANNELS 3 Zrotation Yrotation Xrotation
									JOINT LeftHandIndex1
									{
										OFFSET 0.61640 -0.00000 0.00000
										CHANNELS 3 Zrotation Yrotation Xrotation
										End Site
										{
											OFFSET 0.49696 -0.00000 0.00000
										}
									}
								}
								JOINT LThumb
								{
									OFFSET 0 0 0
									CHANNELS 3 Zrotation Yrotation Xrotation
									End Site
									{
										OFFSET 0.50455 -0.00000 0.50455
									}
								}
							}
						}
					}
				}
				JOINT RightShoulder
				{
					OFFSET 0 0 0
					CHANNELS 3 Zrotation Yrotation Xrotation
					JOINT RightArm
					{
						OFFSET -3.24731 1.15872 -0.32221
						CHANNELS 3 Zrotation Yrotation Xrotation
						JOINT RightForeArm
						{
							OFFSET -5.35200 -0.00000 0.00000
							CHANNELS 3 Zrotation Yrotation Xrotation
							JOINT RightHand
							{
								OFFSET -3.43721 -0.00000 -0.00000
								CHANNELS 3 Zrotation Yrotation Xrotation
								JOINT RightFingerBase
								{
									OFFSET 0 0 0
									CHANNELS 3 Zrotation Yrotation Xrotation
									JOINT RightHandIndex1
									{
										OFFSET -0.72009 -0.00000 0.00000
										CHANNELS 3 Zrotation Yrotation Xrotation
										End Site
										{
											OFFSET -0.58056 -0.00000 0.00000
										}
									}
								}
								JOINT RThumb
								{
									OFFSET 0 0 0
									CHANNELS 3 Zrotation Yrotation Xrotation
									End Site
									{
										OFFSET -0.58942 -0.00000 0.58942
									}
								}
							}
						}
					}
				}
			}
		}
	}
}
MOTION
Frames: 9
Frame Time: .0083333
10.2042 17.6746 -10.4789 -143.9270 -84.2056 140.1920 0.0000 0.0000 0.0000 -16.9548 4.3948 -8.6158 2.7632 10.3014 29.9584 -0.3318 -13.0030 -3.9237 0.6255 5.0608 14.0820 0.0000 0.0000 0.0000 13.8114 -3.2847 -11.0252 -21.1513 -19.9682 93.3679 -0.1840 2.4035 9.3572 -0.2802 -3.4043 9.4063 1.8564 2.3378 5.4339 1.2982 3.1197 3.2169 0.1361 1.5400 0.2932 -7.3293 2.5076 -10.5849 2.2668 2.7335 42.2190 2.5793 -0.4897 16.9988 -0.0000 0.0000 0.0000 -87.7961 8.8229 13.7766 16.1624 -25.7404 -3.7162 -0.0000 0.0000 -4.5588 24.8155 22.9931 10.2384 -7.1250 0.0000 -0.0000 -4.5678 54.9779 -1.1210 -0.0000 0.0000 0.0000 86.3270 -5.6992 9.9601 -13.5980 22.1572 -2.6746 0.0000 -0.0000 -9.6478 -23.0133 11.6639 -4.9081 7.1250 -0.0000 -0.0000 2.8990 -17.3485 1.9051
10.1317 17.6952 -10.4768 -148.7380 -84.6350 144.9700 0.0000 0.0000 0.0000 -17.6900 4.6355 -7.9562 2.6111 10.0372 29.0971 -0.3373 -12.7753 -3.4941 0.5773 4.8654 13.5252 0.0000 0.0000 0.0000 12.9725 -2.9153 -12.7737 -21.9673 -19.9070 95.7605 -0.1729 2.0349 8.8770 -0.2832 -3.4226 9.4577 1.1461 2.2658 5.6393 1.1210 2.9981 3.1989 0.3467 1.4717 0.1310 -7.2845 2.5860 -10.4553 2.1026 2.8969 42.0919 2.5168 -0.4307 16.8889 -0.0000 -0.0000 0.0000 -87.5905 8.6520 14.0423 16.6873 -26.4437 -3.9471 -0.0000 0.0000 -4.3476 23.1707 22.2243 9.1954 -7.1250 0.0000 -0.0000 -6.0266 53.8417 -1.3137 -0.0000 -0.0000 0.0000 86.3805 -5.6042 9.8044 -13.6061 22.1688 -2.6777 0.0000 -0.0000 -8.5543 -22.8852 12.1546 -5.0789 7.1250 -0.0000 -0.0000 3.0104 -16.8330 2.0124
10.0667 17.7131 -10.4817 -150.7670 -85.0871 146.8570 0.0000 0.0000 0.0000 -18.1574 4.5140 -7.1473 2.4824 9.8059 28.3503 -0.3339 -12.3922 -3.0069 0.6027 4.9696 13.8217 0.0000 0.0000 0.0000 12.4015 -2.9744 -14.4550 -22.7244 -19.8211 97.9885 -0.1366 1.8641 7.9285 -0.1185 -2.2194 6.1123 0.5129 2.1826 5.9684 1.1040 2.8574 3.2620 0.6780 1.3922 -0.0176 -7.3215 2.6321 -10.5165 1.9696 3.0469 42.0567 2.4881 -0.3891 16.8795 0.0000 0.0000 0.0000 -87.5142 8.3590 14.1133 17.2160 -27.1416 -4.1854 -0.0000 0.0000 -3.7663 21.8603 21.0798 8.2109 -7.1250 0.0000 -0.0000 -6.9826 52.4014 -1.2771 0.0000 0.0000 0.0000 86.3016 -5.4580 9.8067 -13.6912 22.2916 -2.7099 0.0000 -0.0000 -7.8924 -23.0216 11.9698 -5.0363 7.1250 -0.0000 -0.0000 2.9069 -17.0185 1.9313
10.0009 17.7366 -10.4817 -148.1820 -85.2727 144.2030 0.0000 0.0000 0.0000 -18.0661 4.3576 -6.4574 2.3738 9.6047 27.7059 -0.3473 -12.1858 -2.3528 0.7017 5.3545 14.9224 0.0000 0.0000 0.0000 12.3832 -3.2174 -16.2429 -23.4118 -19.7186 100.0204 -0.0736 2.1668 6.4030 -0.0388 -1.2711 3.4949 0.5028 2.0995 6.2792 1.1888 2.7455 3.3011 0.7661 1.3336 -0.1533 -7.6525 2.6733 -10.8410 2.1817 3.1521 42.2981 2.6729 -0.3851 17.0783 0.0000 0.0000 0.0000 -87.3983 8.1197 14.8485 17.9364 -28.0757 -4.5193 -0.0000 0.0000 -4.4799 21.7885 20.7062 8.0448 -7.1250 0.0000 -0.0000 -6.9345 51.9993 -1.1998 0.0000 0.0000 0.0000 86.1759 -5.3608 9.8279 -13.8314 22.4932 -2.7633 0.0000 -0.0000 -7.4517 -22.2356 11.5208 -4.6679 7.1250 -0.0000 -0.0000 3.4371 -17.5748 2.2429
9.9342 17.7621 -10.4763 -146.9140 -85.4425 142.9070 0.0000 0.0000 0.0000 -18.0587 4.4807 -5.9122 2.2632 9.3940 27.0356 -0.3713 -12.1492 -1.6370 0.7100 5.3852 15.0107 0.0000 0.0000 0.0000 12.1090 -3.4250 -18.1324 -24.0829 -19.5955 102.0154 -0.0251 2.3713 4.7748 -0.0476 -1.4078 3.8715 0.4308 1.8171 6.5362 1.3025 2.3655 3.3262 0.9391 1.1401 -0.2737 -8.2494 2.8815 -11.1679 2.3348 3.6138 42.4994 2.9346 -0.2889 17.2255 -0.0000 0.0000 0.0000 -87.7135 8.0200 14.7201 18.7116 -29.0587 -4.8900 -0.0000 0.0000 -4.9886 21.8278 20.2331 7.8865 -7.1250 0.0000 -0.0000 -6.7478 51.5126 -1.0865 -0.0000 0.0000 0.0000 85.7795 -5.2303 10.4638 -13.9642 22.6835 -2.8143 0.0000 -0.0000 -6.7745 -21.3772 11.4447 -4.4412 7.1250 -0.0000 -0.0000 4.0359 -17.7326 2.6214
9.8704 17.7841 -10.4734 -151.2090 -85.9537 147.1370 0.0000 0.0000 0.0000 -18.6439 4.7946 -5.4505 2.1609 9.1935 26.4025 -0.3978 -12.2231 -0.9868 0.6243 5.0560 14.0684 0.0000 0.0000 0.0000 11.0674 -3.7022 -20.0541 -24.7384 -19.4529 103.9767 0.0123 2.7772 3.0944 -0.1172 -2.2068 6.0776 -0.5073 1.3216 6.7037 1.5461 1.6472 3.4665 1.7620 0.7650 -0.2454 -8.8742 3.2806 -11.4680 1.8909 4.6320 42.4651 3.0098 -0.0381 17.2150 -0.0000 -0.0000 0.0000 -88.6031 7.8993 13.9406 19.5959 -30.1524 -5.3269 -0.0000 0.0000 -5.5150 21.8423 19.4845 7.6151 -7.1250 0.0000 -0.0000 -6.5106 50.7325 -0.9230 -0.0000 -0.0000 0.0000 84.7525 -4.8260 12.1892 -14.0765 22.8440 -2.8577 0.0000 -0.0000 -6.5988 -21.2045 11.2562 -4.3307 7.1250 -0.0000 -0.0000 4.1514 -17.9481 2.6771
9.8063 17.8053 -10.4731 -155.1190 -86.4950 150.9780 0.0000 0.0000 0.0000 -19.1671 5.1978 -5.0245 2.0716 9.0136 25.8378 -0.4229 -12.2898 -0.2902 0.5511 4.7558 13.2134 0.0000 0.0000 0.0000 10.1719 -3.9830 -21.9269 -25.3306 -19.3046 105.7613 0.0419 3.6407 1.0365 -0.0976 -2.0150 5.5471 -1.3150 0.9663 6.8463 1.7238 1.1197 3.6287 2.4356 0.4849 -0.1566 -9.0940 3.5424 -11.7135 1.4005 5.3323 42.4526 2.9421 0.1405 17.2445 -0.0000 -0.0000 0.0000 -89.0445 7.7027 14.1298 20.5126 -31.2550 -5.7950 -0.0000 0.0000 -6.6601 22.1281 18.9827 7.5347 -7.1250 0.0000 -0.0000 -6.0880 50.2536 -0.7909 -0.0000 -0.0000 0.0000 84.0064 -4.4025 13.3561 -14.2300 23.0625 -2.9176 0.0000 -0.0000 -6.8868 -21.2297 11.1283 -4.2879 7.1250 -0.0000 -0.0000 4.1299 -18.0820 2.6510
9.7400 17.8319 -10.4745 -154.0600 -86.8195 149.8360 0.0000 0.0000 0.0000 -19.2410 5.3626 -4.4913 1.9939 8.8534 25.3377 -0.4378 -12.2701 0.3421 0.5033 4.5479 12.6234 0.0000 0.0000 0.0000 9.8644 -4.1745 -23.6959 -25.8269 -19.1657 107.2676 0.0406 4.3883 -1.1178 -0.0950 -1.9878 5.4719 -1.4438 0.8611 7.1122 1.7095 0.9655 3.6916 2.5017 0.4047 -0.2325 -9.0174 3.5717 -11.8069 1.3503 5.3864 42.5227 2.9192 0.1614 17.3106 0.0000 0.0000 0.0000 -88.7972 7.5517 15.0578 21.3136 -32.1926 -6.2162 -0.0000 0.0000 -7.5131 22.4130 18.8548 7.5920 -7.1250 0.0000 -0.0000 -5.7739 50.1659 -0.7374 0.0000 0.0000 0.0000 84.0271 -4.2811 13.3697 -14.4738 23.4079 -3.0138 0.0000 -0.0000 -7.0694 -20.7637 11.0873 -4.1701 7.1250 -0.0000 -0.0000 4.4566 -18.1644 2.8539
9.6735 17.8588 -10.4773 -157.1130 -87.1364 152.8440 0.0000 0.0000 0.0000 -19.4707 5.4326 -4.0776 1.9385 8.7368 24.9755 -0.4582 -12.3646 0.9430 0.4869 4.4743 12.4150 0.0000 0.0000 0.0000 9.3893 -4.4354 -25.5096 -26.2402 -19.0396 108.5305 0.0193 4.9912 -2.8037 -0.1175 -2.2095 6.0849 -2.0692 0.6004 7.3397 1.8938 0.5745 3.7238 3.0730 0.1985 -0.3100 -9.4811 3.7650 -11.9270 1.2541 5.8774 42.4611 3.0354 0.2754 17.2631 -0.0000 -0.0000 0.0000 -89.2151 7.5697 14.9736 22.2427 -33.2502 -6.7184 -0.0000 0.0000 -7.8269 22.3172 18.7618 7.5210 -7.1250 0.0000 -0.0000 -5.8427 50.0523 -0.7299 -0.0000 -0.0000 0.0000 83.4832 -4.1755 14.3652 -14.7437 23.7878 -3.1218 0.0000 -0.0000 -7.4661 -20.5681 11.0156 -4.1011 7.1250 -0.0000 -0.0000 4.5925 -18.2563 2.9321
